<svg width="220" height="56" fill="none" xmlns="http://www.w3.org/2000/svg"><path d="m48 9.3 5.2 11.3-.4 14.3-3 9.5c-.2 0-.7-.2-1.8-2.2-1.2-2.1-4.2-6.3-4.4-7.3-.3-1-.4-8.3-.4-8.3l-.6-15.8 5.3-1.5Z" fill="#16992B"/><path d="M48 9.2s9.5 9.2 9.5 18c0 6.2-3 9.6-3.7 10.8a107 107 0 0 1-2.8 4.4l-1.2 2c-.3.3 0-2.6.4-3.8a64 64 0 0 0 1.5-12.2c0-4.7-.4-10.4-2-13.9-1.9-3.8-3.6-5.7-3.6-5.7l1.9.4Z" fill="#56C140"/><path d="M50.9 0c-1-.4-1.3 1.6-1.3 2 0 .3-1 1.3-2 2.3l-.1.2L44.7 7l-.6.5c.8.9.9 1.7.9 1.7s1 0 1.7 1.1L48.9 8l.7-.6.2-.3C50.9 6 52 5 52.6 3.4 53.2 2 52.6.9 51 0Z" fill="#16992B"/><path d="M36.5 43a29.3 29.3 0 0 1-14.3 6.7c-4.7.7-9.2 0-13-1.9-2.8 1-5.9.4-7.6-1.7l-.2-.2L45 9.2c1.3.2 1.7 1.2 1.7 1.2.7.7 1 4-.7 6.8 1.2 4 1 8.5-.5 12.9a29.3 29.3 0 0 1-9 13Z" fill="#FFDB2D"/><path d="M45 9.2c-.5-3-4.1-3-7-2-7.9-4.4-19.1-2.6-27.7 4.6a29.1 29.1 0 0 0-9.2 13.4 21 21 0 0 0 0 13.3 6.8 6.8 0 0 0 .3 7.4L45 9.2Z" fill="#FFE671"/><path d="M5.2 31c-1-7.6 4-12.1 4.2-12.3l2.8 3.2c0 .1-3.4 3.2-2.8 8.6l-4.2.5Z" fill="#FFF6C4"/><path d="M103 42.3a113.4 113.4 0 0 1-6.3 2.6 32 32 0 0 1-8.3 1c-5.1 0-9.1-1.1-12-3.4-2.7-2.4-4.1-6.2-4.1-11.6 0-3.2.4-6.1 1.4-8.9A20.4 20.4 0 0 1 85 10a28.3 28.3 0 0 1 23.6 1.9l-2 10.7H96a42 42 0 0 0 .3-3.4 548.2 548.2 0 0 1 .1-4.5l-.3-1.2a2 2 0 0 0-.7-1c-.3-.2-.8-.3-1.3-.3-1 0-2 .4-2.8 1.2-.8.9-1.5 2-2.2 3.4a59.6 59.6 0 0 0-4 21.3c0 .5.2 1 .4 1.6.2.6.5 1 .9 1.4.4.4 1 .6 1.7.6 1.2 0 2.3-.7 3.4-2.2 1.2-1.5 2.1-4.2 3-8h10.7l-2.3 11Zm8.5-19.6c2-1 4-1.7 6-2.1a32.1 32.1 0 0 1 13.2-.1c1.6.4 2.9 1 3.8 1.7a6 6 0 0 1 2 2.6c.5 1 .6 2.1.6 3.4l-.1 2.4-.3 2.1-2.7 12.8h-9.4l-1-3.7h-.4a13 13 0 0 1-9.2 4.1c-1 0-1.8 0-2.7-.4a5 5 0 0 1-2.4-1.2 6.6 6.6 0 0 1-1.7-2.1c-.4-1-.6-2-.6-3.2 0-2 .5-3.6 1.6-4.8 1.1-1.2 2.6-2 4.4-2.6a24 24 0 0 1 6-1.2c2.3-.2 4.6-.2 6.9-.2a55.6 55.6 0 0 0 .5-3.6c0-.7-.2-1.3-.6-1.9-.4-.6-1.1-1-2.3-1-1.3 0-2.3.5-3 1.3-.6.8-1 1.7-1.2 2.8h-8.5l1.1-5.1Zm13.3 10.2h-1c-1.1 0-2 .1-2.9.5-.8.2-1.4.6-2 1a4.6 4.6 0 0 0-1.3 3.4c0 .9.2 1.6.7 2 .5.5 1 .8 1.7.8a4 4 0 0 0 2.4-1c.8-.5 1.3-1.3 1.5-2.2l1-4.5Zm23.7 22.3h-11.8l7.3-34.7h9.4l1 3.8h.4a12 12 0 0 1 4.7-3.2c1.7-.6 3.4-1 5-1 1.4 0 2.5.2 3.4.7 1 .4 1.7.9 2.2 1.6.6.7 1 1.5 1.2 2.5l.3 3a37.7 37.7 0 0 1-.6 6.2 32 32 0 0 1-1.2 4 13 13 0 0 1-2 3.9 9.6 9.6 0 0 1-3.1 2.8 8.6 8.6 0 0 1-4.5 1.1 11.7 11.7 0 0 1-5.3-1.2l-2-1.4c-.5-.5-.9-1-1.2-1.6h-.3l-2.9 13.5Zm6.1-14.9c1 0 1.7-.5 2.4-1.4.6-1 1-2.2 1.5-3.5a25.4 25.4 0 0 0 1-7 4 4 0 0 0-.3-2c-.3-.4-.7-.7-1.4-.7s-1.4.3-2 .8l-1.5 1.3-2.3 10.7 1.1 1.2c.5.4 1 .6 1.5.6ZM178 20.5h9.4l.8 4.4h.4c1-1.4 2-2.6 3.5-3.5a9.5 9.5 0 0 1 9.9-.2l-2.6 12h-6.3c0-2.4-.3-4-.6-5-.4-1-1-1.5-1.7-1.5l-1.3.3c-.4.2-.9.6-1.3 1.1l-3.7 17.4h-11.9l5.3-25Zm34.4 25h-11.7l5.2-25h12l-5.5 25Zm7-32.6a5 5 0 0 1-2 4 6 6 0 0 1-2.1 1c-.8.3-1.6.4-2.4.4a7 7 0 0 1-3.9-1c-1-.8-1.6-2-1.6-3.5 0-.9.2-1.6.6-2.3a4 4 0 0 1 1.4-1.7c.6-.5 1.3-.8 2-1a9 9 0 0 1 2.5-.4c1.6 0 2.8.4 3.9 1.1a4 4 0 0 1 1.5 3.4Z" fill="#08360F"/></svg>