<svg width="220" height="57" fill="none" xmlns="http://www.w3.org/2000/svg"><path d="M48 9.5 53.5 21 53 35.7l-3.1 9.6c-.1.1-.6 0-1.8-2.2-1.2-2.1-4.1-6.4-4.4-7.4-.2-1-.3-8.6-.3-8.6l-.7-16 5.4-1.6Z" fill="#028F82"/><path d="M48.1 9.4s9.6 9.4 9.6 18.5c0 6.3-3 9.7-3.7 11l-2.8 4.4-1.2 2c-.4.4 0-2.6.4-3.8.4-1.3 1.4-8 1.4-12.4a38 38 0 0 0-2-14.3A24 24 0 0 0 46.2 9l2 .4Z" fill="#2EC48E"/><path d="M51 0c-1-.4-1.3 1.7-1.3 2 0 .4-1 1.4-2 2.4v.1l-2.8 2.8-.6.5c.8.9.8 1.7.8 1.7s1 0 1.7 1.2l2.3-2.4.6-.7.2-.2c1.2-1.2 2.2-2.3 2.9-4 .5-1.3-.1-2.5-1.8-3.3Z" fill="#028F82"/><path d="M36.6 44c-4.3 3.6-9.2 6-14.4 6.8a21 21 0 0 1-12.9-1.9c-2.9 1-6 .4-7.7-1.8l-.2-.2L45.2 9.4c1.2.2 1.7 1.2 1.7 1.2.6.8 1 4.1-.7 7 1.1 4 1 8.6-.5 13.2a30 30 0 0 1-9 13.2Z" fill="#FFDB2D"/><path d="M45.2 9.4c-.6-3-4.2-3-7-2-8-4.5-19.3-2.7-27.9 4.6a29.8 29.8 0 0 0-9.2 13.7 21.8 21.8 0 0 0 0 13.6 7.1 7.1 0 0 0 .3 7.6L45.2 9.4Z" fill="#FFE671"/><path d="M5.2 31.7c-1-7.8 4-12.4 4.2-12.6l2.9 3.3c-.1 0-3.5 3.3-2.9 8.7l-4.2.6Z" fill="#FFF6C4"/><path d="M103.3 43.3a114 114 0 0 1-6.3 2.6 31.5 31.5 0 0 1-8.3 1c-5.2 0-9.2-1.1-12-3.5-2.8-2.4-4.2-6.3-4.2-11.9 0-3.2.5-6.2 1.4-9a21 21 0 0 1 11.4-12.4A28 28 0 0 1 109 12l-2.1 11H96.4a44 44 0 0 0 .3-3.4 546.1 546.1 0 0 1 .1-4.7l-.3-1.2a2 2 0 0 0-.7-1c-.4-.2-.8-.4-1.3-.4-1 0-2 .5-2.8 1.3-.8.9-1.6 2-2.2 3.4a62 62 0 0 0-4 21.8c0 .6.2 1.1.4 1.7.2.6.4 1 .8 1.4.5.4 1 .6 1.7.6 1.2 0 2.4-.7 3.5-2.2C93 38.7 94 36 95 32h10.7l-2.3 11.2Zm8.5-20.1a31.7 31.7 0 0 1 19.2-2.3c1.7.4 3 1 4 1.8a6 6 0 0 1 2 2.6c.4 1 .6 2.2.6 3.5l-.2 2.5c0 .8-.2 1.6-.3 2.1l-2.7 13H125l-1-3.7h-.4a13 13 0 0 1-4.4 3.2 12 12 0 0 1-4.9 1c-.9 0-1.8 0-2.7-.4-.9-.2-1.7-.6-2.4-1.2a6.7 6.7 0 0 1-1.7-2.2c-.4-.9-.6-2-.6-3.3a7 7 0 0 1 1.6-4.8 11 11 0 0 1 4.4-2.7c1.8-.7 3.9-1 6.1-1.2l6.9-.3a58 58 0 0 0 .4-3.6c0-.7-.2-1.3-.6-2-.3-.6-1-.9-2.2-.9-1.4 0-2.4.4-3 1.3-.7.8-1 1.7-1.3 2.9h-8.5l1.1-5.3Zm13.4 10.4h-1a8 8 0 0 0-3 .5c-.7.3-1.3.6-1.9 1.1a4.8 4.8 0 0 0-1.3 3.4c0 1 .2 1.7.7 2.1.5.5 1 .7 1.7.7.8 0 1.6-.2 2.4-.8.8-.6 1.3-1.4 1.5-2.4l1-4.6ZM149 56.4h-12l7.4-35.4h9.5l1 3.8h.4a12 12 0 0 1 4.6-3.2 14 14 0 0 1 5.2-1c1.3 0 2.4.2 3.3.6 1 .4 1.7 1 2.2 1.7.6.7 1 1.6 1.2 2.5.2 1 .4 2 .4 3.2a38.6 38.6 0 0 1-.7 6.2 21.4 21.4 0 0 1-3.1 8.2 9.7 9.7 0 0 1-3.2 2.8 8.5 8.5 0 0 1-4.5 1.2 11.5 11.5 0 0 1-5.3-1.3l-2-1.4c-.5-.6-1-1.1-1.2-1.7h-.3l-3 13.8Zm6.1-15.2c1 0 1.7-.5 2.3-1.5.7-1 1.2-2.2 1.6-3.5a26.3 26.3 0 0 0 1-7.2c0-.8 0-1.4-.3-2-.3-.5-.7-.7-1.4-.7s-1.4.2-2 .8a7 7 0 0 0-1.5 1.4l-2.3 10.8 1.1 1.3c.4.4 1 .6 1.5.6ZM178.4 21h9.5l.9 4.4h.4a13 13 0 0 1 3.4-3.6 9.4 9.4 0 0 1 10 0l-2.6 12h-6.3c0-2.4-.3-4.1-.7-5-.3-1-.9-1.6-1.6-1.6a3.3 3.3 0 0 0-2.6 1.4l-3.8 18h-11.9l5.3-25.5ZM213 46.5h-11.7l5.3-25.5h11.9L213 46.5Zm7-33.3c0 1-.2 1.7-.6 2.4-.3.7-.8 1.2-1.4 1.7a6 6 0 0 1-2 1c-.8.3-1.6.4-2.5.4a7 7 0 0 1-3.9-1c-1-.8-1.5-2-1.5-3.6a5 5 0 0 1 1.9-4c.6-.5 1.3-.9 2-1.1.9-.3 1.7-.4 2.6-.4 1.5 0 2.8.4 3.8 1.1 1 .8 1.6 2 1.6 3.5Z" fill="#028F82"/></svg>