<svg width="143" height="40" fill="none" xmlns="http://www.w3.org/2000/svg"><rect width="142.556" height="40" rx="3" fill="#F03E2F"/><path d="M17.6 13.3c0 2.4 1.5 3.8 4.6 4.5l3.2.8c2.8.6 4.6 2.2 4.6 4.9a5 5 0 0 1-1 3.1c0-2.6-1.5-4-4.8-4.9l-3.1-.7c-2.6-.5-4.5-1.9-4.5-4.7a4.9 4.9 0 0 1 1-3Z" fill="#fff"/><path d="M27 22.8c1.3.9 2 2 2 3.8a7.1 7.1 0 0 1-5.5 2.2c-4 0-6.8-1.9-7.4-5.2H20c.5 1.5 1.8 2.2 3.5 2.2 2.1 0 3.5-1 3.5-3Zm-7.4-6a4 4 0 0 1-2-3.6c1.1-1.4 3-2.2 5.4-2.2 4 0 6.4 2 7 5h-3.7c-.4-1.2-1.4-2-3.2-2-2 0-3.3 1-3.4 2.8" fill="#F9B1AB"/><path d="M37.001 17.292v-1.134h6.754v1.134h-2.723v7.594H39.72v-7.594H37ZM44.466 24.886V18.34h1.231v1.04h.069c.119-.352.33-.63.63-.831a1.804 1.804 0 0 1 1.032-.307 5.42 5.42 0 0 1 .54.03v1.219a2.278 2.278 0 0 0-.272-.047c-.13-.02-.261-.03-.392-.03-.301 0-.57.064-.806.192a1.424 1.424 0 0 0-.758 1.282v3.998h-1.274ZM50.076 27.34c-.19 0-.364-.015-.52-.047a1.636 1.636 0 0 1-.35-.093l.307-1.044c.233.062.44.089.623.08a.745.745 0 0 0 .481-.204c.142-.128.267-.337.375-.627l.158-.434-2.395-6.63h1.363l1.658 5.079h.068l1.658-5.08h1.368l-2.697 7.42a2.96 2.96 0 0 1-.478.864 1.854 1.854 0 0 1-.69.537c-.267.12-.577.18-.93.18ZM62 25.018c-.613 0-1.149-.14-1.606-.422a2.845 2.845 0 0 1-1.066-1.18c-.253-.506-.379-1.097-.379-1.773 0-.68.127-1.273.38-1.782a2.84 2.84 0 0 1 1.065-1.184c.457-.281.993-.422 1.606-.422.614 0 1.15.14 1.607.422a2.84 2.84 0 0 1 1.065 1.184c.253.509.38 1.103.38 1.782 0 .676-.127 1.267-.38 1.773-.253.505-.608.899-1.065 1.18-.458.281-.993.422-1.607.422Zm.005-1.07c.397 0 .727-.105.988-.315.261-.21.455-.49.58-.84a3.34 3.34 0 0 0 .191-1.154c0-.418-.064-.802-.191-1.151a1.875 1.875 0 0 0-.58-.848c-.261-.213-.59-.32-.989-.32-.4 0-.732.107-.997.32a1.904 1.904 0 0 0-.583.848c-.125.35-.188.733-.188 1.15 0 .42.063.806.188 1.155.127.35.322.63.583.84.265.21.597.315.998.315ZM67.748 21v3.886h-1.274V18.34h1.223v1.066h.08c.151-.347.387-.625.708-.836.324-.21.731-.315 1.223-.315.446 0 .837.094 1.172.281.335.185.595.46.78.827.184.366.277.82.277 1.36v4.163h-1.274v-4.01c0-.475-.124-.846-.371-1.113-.247-.27-.587-.404-1.019-.404-.295 0-.558.064-.788.191a1.38 1.38 0 0 0-.541.563c-.13.244-.196.54-.196.886ZM81.458 18.668c-.034-.343-.18-.61-.44-.8-.258-.191-.609-.286-1.052-.286a2.01 2.01 0 0 0-.763.127 1.073 1.073 0 0 0-.477.346.83.83 0 0 0-.162.503.718.718 0 0 0 .098.409c.074.116.175.217.303.302.128.083.275.155.443.218.168.06.346.11.537.153l.784.187c.38.086.73.2 1.048.341.318.142.594.317.827.524.233.208.413.452.541.733.13.282.198.604.2.968-.002.534-.139.997-.409 1.389-.267.39-.653.692-1.159.908-.503.213-1.11.32-1.82.32-.704 0-1.317-.109-1.84-.325-.52-.216-.926-.535-1.219-.958-.29-.427-.442-.954-.456-1.581h1.786c.02.292.103.537.251.732.15.194.35.34.6.44.254.096.54.144.857.144.313 0 .584-.045.814-.136.233-.09.414-.217.541-.38a.876.876 0 0 0 .192-.558.725.725 0 0 0-.175-.494 1.323 1.323 0 0 0-.502-.34 5.112 5.112 0 0 0-.806-.256l-.95-.24c-.736-.178-1.317-.458-1.743-.839-.426-.38-.638-.893-.635-1.538-.003-.528.138-.99.422-1.385.287-.395.68-.703 1.18-.925.5-.221 1.069-.332 1.705-.332.648 0 1.213.11 1.696.332.486.222.864.53 1.133.925.27.395.41.852.418 1.372h-1.768ZM86.419 25.01c-.418 0-.79-.073-1.117-.218a1.797 1.797 0 0 1-.775-.652c-.188-.29-.281-.65-.281-1.082 0-.364.066-.67.2-.917.133-.247.315-.446.545-.596.23-.15.492-.265.784-.341a5.97 5.97 0 0 1 .93-.162c.38-.04.687-.077.92-.11.233-.038.402-.092.507-.163a.356.356 0 0 0 .158-.315v-.026c0-.27-.086-.478-.256-.626-.168-.148-.406-.222-.716-.222-.327 0-.587.073-.78.218a1 1 0 0 0-.383.537l-1.68-.137c.086-.398.254-.741.504-1.031.25-.293.572-.517.967-.673.398-.16.858-.239 1.38-.239.364 0 .712.043 1.045.128.335.085.632.217.89.396.262.18.468.41.618.69.15.279.226.613.226 1.002v4.415h-1.722v-.908h-.05a1.847 1.847 0 0 1-.423.541 1.953 1.953 0 0 1-.635.362 2.626 2.626 0 0 1-.856.128Zm.52-1.254c.267 0 .503-.052.707-.157.205-.108.365-.253.482-.435.116-.182.174-.388.174-.618v-.694a.972.972 0 0 1-.234.102 4.3 4.3 0 0 1-.328.08c-.122.024-.244.045-.366.065l-.333.047c-.213.03-.399.08-.558.149a.893.893 0 0 0-.37.277.675.675 0 0 0-.133.426c0 .247.09.436.269.567.181.127.411.191.69.191ZM93.329 21.102v3.784h-1.816V18.34h1.73v1.155h.077c.145-.38.388-.682.729-.903.34-.225.754-.337 1.24-.337.454 0 .85.1 1.189.298.338.2.6.483.788.852.188.367.281.804.281 1.313v4.168h-1.815v-3.844c.003-.4-.1-.713-.307-.938-.207-.227-.493-.34-.856-.34-.245 0-.46.052-.648.157-.185.105-.33.259-.435.46a1.595 1.595 0 0 0-.157.72ZM98.978 24.886V18.34h1.816v6.546h-1.816Zm.912-7.39a.987.987 0 0 1-.694-.268.87.87 0 0 1-.286-.652c0-.25.095-.465.286-.644a.978.978 0 0 1 .694-.272c.27 0 .5.09.691.272a.847.847 0 0 1 .289.644c0 .253-.096.47-.289.652a.974.974 0 0 1-.69.268ZM105.729 18.34v1.364h-3.941V18.34h3.941Zm-3.047-1.568h1.816v6.102a.83.83 0 0 0 .076.392c.052.091.123.155.214.192a.873.873 0 0 0 .323.056c.086 0 .171-.008.256-.022l.196-.038.286 1.35a5.103 5.103 0 0 1-.384.099c-.165.04-.365.064-.601.072-.437.017-.821-.041-1.15-.175a1.606 1.606 0 0 1-.763-.622c-.182-.281-.271-.636-.269-1.065v-6.341ZM108.033 27.34c-.231 0-.446-.018-.648-.055a2.34 2.34 0 0 1-.494-.132l.409-1.355c.213.065.404.1.575.106a.73.73 0 0 0 .447-.12c.128-.084.232-.23.311-.434l.107-.277-2.348-6.733h1.909l1.355 4.807h.068l1.368-4.807h1.922l-2.544 7.253c-.122.352-.288.66-.499.92-.207.265-.47.468-.788.61-.318.145-.702.217-1.15.217ZM114.594 24.996a.994.994 0 0 1-.724-.298.995.995 0 0 1-.299-.724c0-.279.1-.517.299-.716a.994.994 0 0 1 .724-.299c.273 0 .511.1.716.299a.965.965 0 0 1 .307.716c0 .187-.049.36-.145.515a1.1 1.1 0 0 1-.371.371.974.974 0 0 1-.507.136ZM117.107 24.886V18.34h1.815v6.546h-1.815Zm.912-7.39a.989.989 0 0 1-.695-.268.871.871 0 0 1-.285-.652c0-.25.095-.465.285-.644a.98.98 0 0 1 .695-.272c.27 0 .5.09.69.272.194.18.29.394.29.644 0 .253-.096.47-.29.652a.97.97 0 0 1-.69.268ZM123.334 25.014c-.662 0-1.234-.141-1.717-.422a2.885 2.885 0 0 1-1.112-1.185c-.262-.509-.393-1.098-.393-1.768 0-.677.131-1.268.393-1.773a2.85 2.85 0 0 1 1.112-1.185c.483-.284 1.055-.426 1.717-.426.662 0 1.233.142 1.713.426.483.281.855.676 1.117 1.185.261.505.392 1.096.392 1.773 0 .67-.131 1.26-.392 1.768-.262.506-.634.9-1.117 1.185-.48.28-1.051.422-1.713.422Zm.009-1.407c.301 0 .552-.085.754-.255.202-.174.354-.41.456-.708.105-.298.157-.638.157-1.018 0-.381-.052-.72-.157-1.019a1.581 1.581 0 0 0-.456-.707 1.117 1.117 0 0 0-.754-.26c-.304 0-.56.087-.767.26-.205.173-.36.409-.465.707a3.14 3.14 0 0 0-.153 1.019c0 .38.051.72.153 1.018.105.299.26.534.465.708.207.17.463.255.767.255Z" fill="#fff"/></svg>