<svg width="485" height="485" fill="none" xmlns="http://www.w3.org/2000/svg"><g clip-path="url(#a)"><path d="m393.5 116 42 89.2-3.5 113s-23 74.1-24.1 75c-1.2.7-5-1-14.2-17.5s-32.6-49.5-34.5-57.5c-2-8-2.7-65.9-2.7-65.9l-5.4-124.5 42.4-11.8Z" fill="#16992B"/><path d="M394 115.5S469.4 188 469.4 258c0 48.7-23.7 75.5-29.5 85a846.7 846.7 0 0 1-22.2 34.5c-3 4.2-6.8 12.2-9.5 15.3-2.6 3 .3-20.3 3.4-29.8 3-9.6 11.4-61.6 11.5-95.8 0-37.5-3.2-82.8-16.3-110.3a184.1 184.1 0 0 0-28-44.6l15 3Z" fill="#56C140"/><path d="M416.7 43c-7.6-3.7-10.3 12.2-10.3 15-.1 2.8-7.6 10.4-15.3 18.4l-1.2 1.2a451.7 451.7 0 0 1-21.7 21l-4.7 4.3c6.2 6.6 6.5 13 6.5 13s8.5 0 13.5 9c5.1-4.9 11.3-11.5 17.9-18.3l5-5.2 1.9-2c9-9.2 17.2-17.6 22.2-30.2 4.3-10.7-.7-20-13.8-26.2Z" fill="#16992B"/><path d="M303.2 382.5a231.3 231.3 0 0 1-113.4 52.7c-36.8 5.5-72.6.3-101.8-14.6-22.9 8-47 3-61-13.7l-1.4-1.8 344.9-289.6c10 1 13.5 9 13.5 9 5 6 8 32-5.6 53.7 9.4 31.2 8.1 67-3.7 102a231.5 231.5 0 0 1-71.5 102.3Z" fill="#FFDB2D"/><path d="M370.5 115.5c-4-24-32.7-23.8-55-15.7C252.8 64.6 164 78.7 96.2 135.6a230.2 230.2 0 0 0-72.6 105.7 165.3 165.3 0 0 0-.4 105.4c-10.5 20-9.7 42.3 2.5 58.4l344.9-289.6Z" fill="#FFE671"/><path d="M55.4 287.3c-7.2-60.2 32-95.8 33.7-97.2l22.4 25.2a81.8 81.8 0 0 0-22.5 68l-33.6 4Z" fill="#FFF6C4"/></g><defs><clipPath id="a"><path fill="#fff" transform="matrix(-1 0 0 1 485 0)" d="M0 0h485v485H0z"/></clipPath></defs></svg>